<?xml version="1.0" encoding="utf-8"?>
<!-- Uploaded to: SVG Repo, www.svgrepo.com, Generator: SVG Repo Mixer Tools -->
<svg width="800px" height="800px" viewBox="0 0 1024 1024" fill="#000000" class="icon"  version="1.1" xmlns="http://www.w3.org/2000/svg"><path d="M216.544 296.044c-4.42 0-8.076-3.578-8.076-7.998 0-4.422 3.5-7.998 7.904-7.998h0.172c4.406 0 8 3.576 8 7.998a8.004 8.004 0 0 1-8 7.998zM952.392 312.042c-4.42 0-8.076-3.576-8.076-7.998 0-4.42 3.5-7.998 7.904-7.998h0.172c4.406 0 8 3.578 8 7.998a8.006 8.006 0 0 1-8 7.998zM920.4 312.042c-4.422 0-8.076-3.576-8.076-7.998 0-4.42 3.498-7.998 7.904-7.998h0.172a8.004 8.004 0 0 1 7.998 7.998 8.004 8.004 0 0 1-7.998 7.998zM888.406 312.042c-4.42 0-8.076-3.576-8.076-7.998 0-4.42 3.5-7.998 7.904-7.998h0.172a8.004 8.004 0 0 1 7.998 7.998 8.004 8.004 0 0 1-7.998 7.998zM856.412 312.042c-4.42 0-8.074-3.576-8.074-7.998 0-4.42 3.498-7.998 7.902-7.998h0.172c4.406 0 8 3.578 8 7.998a8.006 8.006 0 0 1-8 7.998zM216.544 328.04c-4.42 0-8.076-3.578-8.076-8 0-4.42 3.5-7.998 7.904-7.998h0.172c4.406 0 8 3.578 8 7.998s-3.592 8-8 8zM216.544 360.032c-4.42 0-8.076-3.576-8.076-7.998s3.5-7.998 7.904-7.998h0.172c4.406 0 8 3.576 8 7.998s-3.592 7.998-8 7.998zM216.544 392.026c-4.42 0-8.076-3.578-8.076-7.998 0-4.422 3.5-8 7.904-8h0.172c4.406 0 8 3.578 8 8a8.004 8.004 0 0 1-8 7.998zM216.544 424.018c-4.42 0-8.076-3.576-8.076-7.998 0-4.42 3.5-7.998 7.904-7.998h0.172c4.406 0 8 3.578 8 7.998a8.002 8.002 0 0 1-8 7.998zM216.544 456.012c-4.42 0-8.076-3.578-8.076-7.998 0-4.422 3.5-7.998 7.904-7.998h0.172c4.406 0 8 3.576 8 7.998a8.004 8.004 0 0 1-8 7.998zM216.544 488.006c-4.42 0-8.076-3.578-8.076-8 0-4.42 3.5-7.998 7.904-7.998h0.172c4.406 0 8 3.578 8 7.998 0 4.422-3.592 8-8 8zM216.544 519.998c-4.42 0-8.076-3.576-8.076-7.998s3.5-7.998 7.904-7.998h0.172c4.406 0 8 3.576 8 7.998s-3.592 7.998-8 7.998zM216.544 551.992c-4.42 0-8.076-3.578-8.076-8 0-4.42 3.5-7.998 7.904-7.998h0.172c4.406 0 8 3.578 8 7.998 0 4.422-3.592 8-8 8zM216.544 583.984c-4.42 0-8.076-3.576-8.076-7.998 0-4.42 3.5-7.998 7.904-7.998h0.172c4.406 0 8 3.578 8 7.998a8.002 8.002 0 0 1-8 7.998zM216.544 615.978c-4.42 0-8.076-3.578-8.076-7.998 0-4.422 3.5-8 7.904-8h0.172c4.406 0 8 3.578 8 8a8.004 8.004 0 0 1-8 7.998z" fill="" /><path d="M1015.896 663.968H232.058a7.996 7.996 0 0 1-5.656-2.344l-10.342-10.342-10.34 10.342a7.996 7.996 0 0 1-5.656 2.344H8.106c-4.422 0-8-3.578-8-8V240.056a7.994 7.994 0 0 1 8-7.998h191.958c2.124 0 4.156 0.844 5.656 2.342l10.324 10.334 10.342-10.334a8.002 8.002 0 0 1 5.656-2.342h783.854a7.994 7.994 0 0 1 7.998 7.998v415.912c0 4.422-3.578 8-7.998 8z m-780.526-15.996h772.528V248.054H235.354l-13.652 13.654a7.998 7.998 0 0 1-11.31 0l-13.638-13.654H16.104v399.918h180.648l13.654-13.654a7.996 7.996 0 0 1 11.31 0l13.654 13.654z" fill="" /><path d="M1015.896 695.96H232.058a7.996 7.996 0 0 1-5.656-2.344l-10.342-10.34-10.34 10.34a7.996 7.996 0 0 1-5.656 2.344H8.106c-4.422 0-8-3.576-8-7.998a7.994 7.994 0 0 1 8-7.998h188.646l13.654-13.652a7.996 7.996 0 0 1 11.31 0l13.652 13.652h780.528a7.994 7.994 0 0 1 7.998 7.998 7.994 7.994 0 0 1-7.998 7.998z" fill="" /><path d="M1015.896 727.956H232.058a7.996 7.996 0 0 1-5.656-2.344l-10.342-10.342-10.34 10.342a7.996 7.996 0 0 1-5.656 2.344H8.106c-4.422 0-8-3.578-8-7.998a7.994 7.994 0 0 1 8-7.998h188.646l13.654-13.654a7.996 7.996 0 0 1 11.31 0l13.652 13.654h780.528a7.994 7.994 0 0 1 7.998 7.998 7.996 7.996 0 0 1-7.998 7.998z" fill="" /><path d="M1015.896 759.95H232.058a7.996 7.996 0 0 1-5.656-2.344l-10.342-10.342-10.34 10.342a7.996 7.996 0 0 1-5.656 2.344H8.106c-4.422 0-8-3.578-8-8a7.994 7.994 0 0 1 8-7.998h188.646l13.654-13.652a7.996 7.996 0 0 1 11.31 0l13.652 13.652h780.528a7.994 7.994 0 0 1 7.998 7.998c0 4.422-3.578 8-7.998 8z" fill="" /><path d="M1015.896 791.942H232.058a7.996 7.996 0 0 1-5.656-2.344l-10.342-10.34-10.34 10.34a7.996 7.996 0 0 1-5.656 2.344H8.106c-4.422 0-8-3.578-8-7.998s3.578-7.998 8-7.998h188.646l13.654-13.654a7.996 7.996 0 0 1 11.31 0l13.652 13.654h780.528c4.42 0 7.998 3.578 7.998 7.998s-3.578 7.998-7.998 7.998zM312.042 408.022a7.994 7.994 0 0 1-7.998-7.998V306.7a7.994 7.994 0 0 1 7.998-7.998 7.992 7.992 0 0 1 7.998 7.998v93.324a7.994 7.994 0 0 1-7.998 7.998zM376.028 408.022c-22.056 0-39.99-17.942-39.99-39.992v-31.992c0-22.05 17.934-39.992 39.99-39.992 22.058 0 39.992 17.942 39.992 39.992v31.992c0 22.05-17.934 39.992-39.992 39.992z m0-95.98c-13.23 0-23.994 10.764-23.994 23.996v31.992c0 13.232 10.764 23.996 23.994 23.996 13.232 0 23.996-10.764 23.996-23.996v-31.992c0-13.234-10.764-23.996-23.996-23.996zM472.008 408.022c-22.056 0-39.99-17.942-39.99-39.992v-31.992c0-22.05 17.934-39.992 39.99-39.992 22.058 0 39.992 17.942 39.992 39.992v31.992c0 22.05-17.934 39.992-39.992 39.992z m0-95.98c-13.23 0-23.994 10.764-23.994 23.996v31.992c0 13.232 10.764 23.996 23.994 23.996 13.232 0 23.996-10.764 23.996-23.996v-31.992c0-13.234-10.764-23.996-23.996-23.996zM863.928 535.994c-17.636 0-31.994-14.356-31.994-31.992 0-17.644 14.358-31.994 31.994-31.994s31.992 14.35 31.992 31.994c0 17.636-14.356 31.992-31.992 31.992z m0-47.988c-8.826 0-15.996 7.178-15.996 15.996 0 8.826 7.17 15.996 15.996 15.996s15.996-7.17 15.996-15.996c0-8.818-7.17-15.996-15.996-15.996zM927.914 599.98c-17.636 0-31.994-14.356-31.994-31.992s14.358-31.994 31.994-31.994 31.994 14.358 31.994 31.994-14.358 31.992-31.994 31.992z m0-47.988c-8.826 0-15.996 7.17-15.996 15.996s7.17 15.996 15.996 15.996 15.996-7.17 15.996-15.996-7.17-15.996-15.996-15.996zM839.932 599.98a7.996 7.996 0 0 1-5.654-13.652l111.976-111.976a7.996 7.996 0 1 1 11.31 11.31l-111.976 111.976a7.966 7.966 0 0 1-5.656 2.342zM631.974 535.994H312.042a7.994 7.994 0 0 1-7.998-7.998 7.994 7.994 0 0 1 7.998-7.998h319.934a7.996 7.996 0 1 1-0.002 15.996zM631.974 567.988H312.042a7.994 7.994 0 0 1-7.998-7.998 7.994 7.994 0 0 1 7.998-7.998h319.934a7.998 7.998 0 1 1-0.002 15.996zM472.008 599.98h-159.966a7.992 7.992 0 0 1-7.998-7.996c0-4.422 3.578-8 7.998-8h159.966a7.994 7.994 0 0 1 7.998 8 7.992 7.992 0 0 1-7.998 7.996zM56.094 535.994a7.994 7.994 0 0 1-7.998-7.998v-159.966a7.994 7.994 0 0 1 7.998-7.998c4.422 0 8 3.578 8 7.998v159.966a7.994 7.994 0 0 1-8 7.998zM88.088 615.978a7.994 7.994 0 0 1-7.998-7.998V288.046c0-4.422 3.576-7.998 7.998-7.998s7.998 3.576 7.998 7.998V607.98a7.994 7.994 0 0 1-7.998 7.998zM152.074 472.008c-13.23 0-23.994-10.764-23.994-23.994 0-13.232 10.764-23.996 23.994-23.996 13.232 0 23.996 10.764 23.996 23.996 0 13.23-10.764 23.994-23.996 23.994z m0-31.992a8.008 8.008 0 0 0-7.998 7.998 8.01 8.01 0 0 0 7.998 7.998 8.008 8.008 0 0 0 7.998-7.998 8.008 8.008 0 0 0-7.998-7.998zM152.074 519.998c-13.23 0-23.994-10.764-23.994-23.994 0-13.232 10.764-23.996 23.994-23.996 13.232 0 23.996 10.764 23.996 23.996 0 13.23-10.764 23.994-23.996 23.994z m0-31.992a8.008 8.008 0 0 0-7.998 7.998 8.01 8.01 0 0 0 7.998 7.998 8.008 8.008 0 0 0 7.998-7.998 8.008 8.008 0 0 0-7.998-7.998zM168.072 408.022H136.078a7.994 7.994 0 0 1-7.998-7.998 7.992 7.992 0 0 1 7.998-7.998h31.994a7.994 7.994 0 0 1 7.998 7.998 7.994 7.994 0 0 1-7.998 7.998z" fill="" /></svg>